<?xml version="1.0" standalone="no"?>
<!DOCTYPE svg PUBLIC "-//W3C//DTD SVG 20010904//EN"
 "http://www.w3.org/TR/2001/REC-SVG-20010904/DTD/svg10.dtd">
<svg version="1.0" xmlns="http://www.w3.org/2000/svg"
 width="260.000000pt" height="260.000000pt" viewBox="0 0 260.000000 260.000000"
 preserveAspectRatio="xMidYMid meet">
<metadata>
Created by potrace 1.11, written by Peter Selinger 2001-2013
</metadata>
<g transform="translate(0.000000,260.000000) scale(0.100000,-0.100000)"
fill="#000000" stroke="none">
<path d="M1335 2203 c-71 -13 -183 -65 -205 -95 -3 -4 -28 -1 -55 6 -63 16
-138 12 -185 -12 -23 -11 -45 -15 -61 -11 -107 30 -233 -17 -295 -111 -25 -37
-26 -38 -90 -38 -110 0 -209 -65 -260 -171 -23 -46 -25 -53 -31 -131 -5 -57
-10 -69 -38 -96 -35 -32 -64 -84 -85 -147 -17 -53 -15 -165 3 -208 8 -20 18
-59 21 -85 21 -157 81 -250 196 -303 43 -20 75 -26 150 -29 52 -2 100 -8 106
-13 50 -41 190 -52 269 -22 l50 19 25 -23 c49 -46 140 -60 214 -32 47 18 50
18 86 -1 75 -38 120 -48 209 -46 70 1 97 6 137 26 l51 25 49 -25 c65 -34 197
-36 260 -5 29 15 49 19 73 14 44 -9 89 -2 129 22 23 13 53 19 95 19 75 1 131
19 157 53 11 13 35 28 53 31 102 19 167 111 173 245 2 43 11 95 19 116 9 20
16 66 16 105 1 117 -32 201 -101 264 -27 24 -44 49 -47 69 -17 110 -131 207
-258 221 -27 2 -51 5 -52 5 -2 1 -3 8 -3 16 0 9 -9 34 -20 56 -68 133 -282
229 -437 197 -38 -9 -43 -7 -72 21 -36 36 -73 56 -119 66 -42 9 -101 13 -127
8z m150 -99 c58 -27 61 -38 26 -83 -34 -42 -68 -114 -74 -152 -2 -14 -12 -25
-23 -28 -10 -1 -27 -10 -36 -19 -36 -31 -16 -59 47 -63 22 -1 57 -11 77 -21
48 -23 70 -15 66 26 -2 22 -11 34 -30 44 -33 16 -35 40 -9 99 24 52 85 110
128 122 129 36 336 -62 373 -175 32 -95 -16 -220 -100 -261 -25 -13 -59 -38
-76 -56 l-30 -33 -42 47 c-38 43 -42 51 -36 86 7 48 47 118 79 139 30 19 41
50 25 69 -19 23 -45 18 -82 -17 -51 -49 -77 -90 -90 -147 -11 -49 -13 -51 -45
-51 -21 0 -51 11 -76 28 -23 16 -56 34 -74 41 -39 16 -125 16 -154 1 -33 -18
-43 6 -40 98 1 40 36 125 62 148 38 34 10 97 -34 73 -25 -14 -72 -87 -89 -139
-19 -58 -20 -151 -1 -206 13 -39 13 -46 -3 -80 -10 -20 -19 -51 -20 -68 -1
-17 -3 -34 -3 -38 -1 -5 -13 -8 -28 -8 -38 -1 -103 -32 -133 -65 -50 -54 -140
-71 -193 -36 -92 60 -127 259 -63 360 31 48 89 81 146 81 49 0 57 -8 65 -66
l6 -51 -43 -11 c-65 -17 -108 -47 -108 -76 0 -40 27 -47 78 -20 51 27 97 30
145 11 39 -17 69 -8 74 22 2 16 -5 27 -27 39 -40 23 -53 68 -48 161 6 90 29
143 91 202 92 90 224 120 322 73z m-429 -66 c3 -3 -4 -21 -14 -39 -11 -19 -25
-51 -31 -71 -12 -36 -13 -36 -59 -33 -99 9 -193 -41 -242 -129 -29 -50 -32
-52 -90 -64 -62 -13 -62 -13 -167 -124 -12 -13 -39 -40 -61 -60 -72 -67 -90
-184 -42 -278 l20 -39 -39 -11 c-73 -19 -118 -95 -71 -120 15 -8 24 -6 39 9
29 29 56 41 90 41 24 0 31 -5 31 -18 0 -31 54 -102 100 -133 69 -47 191 -69
211 -38 24 38 7 56 -65 66 -101 14 -156 62 -186 163 -12 39 -25 70 -31 70 -13
0 -49 82 -53 118 -3 33 10 66 41 109 17 24 39 37 77 48 56 16 72 37 54 68 -10
19 19 42 71 57 26 7 31 6 33 -8 1 -9 2 -24 3 -32 20 -193 101 -301 230 -306
67 -3 64 5 41 -99 -18 -75 -18 -88 0 -152 28 -102 110 -163 223 -164 56 -1 60
-3 72 -30 6 -16 25 -41 41 -54 23 -20 33 -23 49 -15 26 15 24 38 -11 89 -17
24 -31 50 -31 58 -1 7 -3 18 -4 23 -1 6 -3 14 -4 19 -2 18 -40 18 -67 0 -51
-33 -149 0 -184 63 -25 45 -24 87 3 210 19 84 47 131 91 152 55 26 100 21 150
-18 47 -35 107 -50 193 -47 39 1 42 -1 48 -30 9 -39 43 -54 68 -30 15 14 16
22 6 50 -7 19 -9 55 -5 86 4 40 2 56 -9 65 -23 19 -49 7 -60 -28 -10 -34 -16
-36 -98 -33 -115 4 -172 88 -118 174 38 63 110 79 183 41 27 -14 38 -34 18
-34 -16 0 -23 -49 -10 -65 18 -21 35 -19 66 10 50 47 132 26 187 -47 31 -40
33 -50 22 -113 -5 -27 -9 -68 -9 -90 -1 -27 -11 -54 -31 -84 -25 -37 -30 -54
-30 -106 l0 -62 -42 -17 c-44 -18 -57 -37 -48 -67 8 -23 31 -24 79 -4 38 16
59 15 113 -7 28 -11 35 -10 49 4 23 23 10 53 -31 72 -42 20 -47 28 -47 71 0
54 11 77 33 70 27 -9 59 4 59 23 0 9 -7 37 -16 62 -26 74 -2 174 60 247 50 59
142 69 206 22 34 -26 75 -102 66 -125 -3 -7 -1 -16 3 -19 17 -10 1 -256 -19
-295 -8 -16 3 -54 18 -64 25 -15 56 22 67 80 2 11 4 20 4 22 1 2 17 -6 36 -18
45 -28 77 -33 100 -16 17 12 18 18 7 40 -6 14 -19 26 -28 26 -28 0 -82 48 -93
82 -6 18 -10 47 -9 63 4 57 -14 149 -38 200 -24 54 -68 95 -129 121 l-34 14
19 32 c10 18 23 52 30 75 11 43 11 43 51 38 85 -11 142 -51 176 -122 12 -26
14 -50 9 -107 -6 -63 -4 -75 10 -80 23 -9 54 2 54 20 0 36 41 -1 65 -60 20
-47 27 -144 13 -192 -5 -19 -25 -50 -44 -69 -29 -29 -33 -38 -24 -55 6 -11 17
-20 25 -20 22 0 19 -68 -4 -106 -10 -17 -33 -41 -50 -53 -29 -21 -31 -21 -31
-4 0 21 -18 43 -34 43 -23 0 -37 -18 -42 -51 -6 -39 -53 -88 -87 -90 -116 -6
-161 21 -187 110 -10 35 0 39 44 20 20 -9 29 -9 41 1 26 22 13 52 -35 80 -56
32 -80 77 -80 150 0 70 26 127 73 163 21 15 37 34 37 41 0 23 -33 44 -55 36
-38 -15 -92 -75 -111 -125 -24 -65 -24 -180 1 -234 11 -25 15 -47 10 -58 -18
-41 6 -132 50 -189 17 -22 21 -33 12 -37 -25 -9 -77 1 -103 22 -24 19 -30 20
-48 7 -12 -7 -21 -21 -21 -31 0 -10 -9 -22 -20 -26 -28 -11 -104 -11 -145 1
-65 18 -137 95 -146 155 -2 11 -5 30 -8 43 -14 65 59 183 123 197 55 12 49 75
-7 75 -29 0 -107 -43 -120 -66 -11 -19 -69 -21 -130 -5 -47 13 -116 61 -133
93 -21 40 -47 48 -73 23 -13 -13 -13 -20 -3 -43 6 -15 17 -33 24 -40 19 -20
16 -29 -16 -48 -33 -19 -53 -56 -45 -79 10 -25 48 -23 79 5 45 39 61 42 131
20 36 -11 77 -20 90 -20 21 0 22 -3 14 -24 -16 -43 -6 -147 20 -201 13 -27 24
-54 24 -59 2 -17 -68 -34 -136 -35 -79 -1 -165 27 -200 65 -46 50 -88 54 -88
9 0 -24 -16 -34 -67 -42 -40 -6 -117 33 -108 55 8 23 -4 49 -25 55 -12 3 -31
-7 -55 -28 -82 -75 -217 -65 -298 21 -23 24 -47 44 -53 44 -14 0 -31 -19 -36
-40 -5 -24 -29 -28 -84 -15 -90 21 -142 66 -182 159 -11 25 -10 31 8 48 26 24
25 30 -4 65 -46 56 -60 95 -61 168 0 57 5 81 28 128 38 77 87 111 160 109 66
-1 84 4 90 28 8 32 -23 50 -91 50 l-61 0 5 43 c16 110 103 203 197 211 52 5
56 0 52 -62 -4 -67 7 -92 39 -92 28 0 36 16 36 71 0 135 88 238 203 239 34 0
38 -2 32 -20 -8 -24 10 -50 34 -50 9 0 35 20 59 44 23 25 52 47 65 49 28 5
106 1 113 -5z"/>
<path d="M461 1436 c-24 -29 -7 -50 74 -90 47 -24 99 -59 127 -87 l48 -48 -19
-33 c-24 -44 -27 -104 -5 -116 20 -11 54 -4 55 12 3 57 40 109 84 120 28 7 38
31 24 58 -9 16 -18 19 -45 15 -30 -5 -39 0 -92 51 -86 84 -225 149 -251 118z"/>
</g>
</svg>
